# xmcd CD database file
#
# Track frame offsets:
#	150
#	25832
#	39927
#	56782
#	79317
#	94162
#	113825
#	124165
#	140917
#	154545
#	172862
#	189875
#	198677
#
# Disc length: 2985 seconds
#
# Revision: 13
# Processed by: cddbd v1.5.2PL0 Copyright (c) Steve Scherf et al.
# Submitted via: CDex 1.70beta3
#
DISCID=ac0ba70d
DTITLE=Thee Michelle Gun Elephant - ロデオ・タンデム・ビート・スペクター
DYEAR=2001
DGENRE=Rock
TTITLE0=シトロエンの孤独
TTITLE1=アリゲーター・ナイト
TTITLE2=暴かれた世界
TTITLE3=ゴッド・ジャズ・タイム
TTITLE4=ベイビー・スターダスト
TTITLE5=リタ
TTITLE6=ビート・スペクター・ブキャナン
TTITLE7=ターキー
TTITLE8=ブレーキはずれた俺の心臓
TTITLE9=マーガレット
TTITLE10=バード・ランド・シンディー
TTITLE11=ビート・スペクター・ガルシア
TTITLE12=赤毛のケリー
EXTD=YEAR: 2001
EXTT0=
EXTT1=
EXTT2=
EXTT3=
EXTT4=
EXTT5=
EXTT6=
EXTT7=
EXTT8=
EXTT9=
EXTT10=
EXTT11=
EXTT12=
PLAYORDER=
